<svg id="Calque_1" data-name="Calque 1" xmlns="http://www.w3.org/2000/svg" viewBox="0 0 803.5 596"><defs><style>.cls-1{fill:#5ce1e6;}</style></defs><path class="cls-1" d="M251.5,462.5v.77C251.43,462.47,251.5,462.13,251.5,462.5Z" transform="translate(19 -116)"/><path class="cls-1" d="M284.5,416.78v23.08a16.48,16.48,0,0,1-16.07,16.51H268c-7.25.06-11.38-3.09-13.69-6.26a15.28,15.28,0,0,1-2.81-9V414.5s3-12,17-12a31.38,31.38,0,0,1,3.49.18A14.14,14.14,0,0,1,284.5,416.78Z" transform="translate(19 -116)"/><path class="cls-1" d="M468.1,307.14,429,229l-53-11L297,116l-59,70-68,30-44.85,91.14H-.5L-19,305-.5,318.22l124-.72,63,94L218,550l34.5-26.5L302,712l28.5-102.5L351,639l51-164,40-24,37-133,241,.15V307ZM311.5,447a33.41,33.41,0,0,1-4.34,16.73c-4.32,7.47-12.71,15.77-28.66,15.77-23.69,0-26.69-12.68-27-16.23V477.5l-27,.24V348.5h27.68v47.76s11.69-31.74,48.32-9.76c10,6,11,21,11,26ZM138.9,307.14,179,225l68-30,51-62,5,88-53,50,85-27,24.75,63.14ZM422.5,424.5h-29c0-8-1-24-17-24s-15,17.77-15,17.77V477.5h-27v-98h27s0,3,0,15.54c0,.46,3-16.54,27-16.54C428.5,378.5,422.5,424.5,422.5,424.5Z" transform="translate(19 -116)"/><path class="cls-1" d="M251.5,462.5v.77C251.43,462.47,251.5,462.13,251.5,462.5Z" transform="translate(19 -116)"/><path class="cls-1" d="M284.5,416.78v23.08a16.48,16.48,0,0,1-16.07,16.51H268c-7.25.06-11.38-3.09-13.69-6.26a15.28,15.28,0,0,1-2.81-9V414.5s3-12,17-12a31.38,31.38,0,0,1,3.49.18A14.14,14.14,0,0,1,284.5,416.78Z" transform="translate(19 -116)"/><path class="cls-1" d="M362.5,416.5" transform="translate(19 -116)"/><path class="cls-1" d="M284.5,416.78v23.08a16.48,16.48,0,0,1-16.07,16.51H268c-7.25.06-11.38-3.09-13.69-6.26a15.28,15.28,0,0,1-2.81-9V414.5s3-12,17-12a31.38,31.38,0,0,1,3.49.18A14.14,14.14,0,0,1,284.5,416.78Z" transform="translate(19 -116)"/><polygon class="cls-1" points="170.5 257.5 170.5 280.41 107.5 303.5 170.5 326.27 170.5 350.12 91.5 315.5 91.5 291.88 170.5 257.5"/><polygon class="cls-1" points="572.5 215.5 598.77 215.5 538.5 380.5 511.64 380.5 572.5 215.5"/><polygon class="cls-1" points="621.5 257.5 621.5 279.95 684.5 304.5 621.5 327.42 621.5 350.81 700.5 316.5 700.5 291.65 621.5 257.5"/><polygon class="cls-1" points="754.5 191.5 754.5 201.84 803.5 201.5 803.5 191.5 754.5 191.5"/></svg>